HIERARCHY
ROOT Hips
{
	OFFSET -3.958830 18.904000 13.208200
	CHANNELS 6 Xposition Yposition Zposition Zrotation Yrotation Xrotation 
	JOINT LHipJoint
	{
		OFFSET 0.000000 0.000000 0.000000
		CHANNELS 3 Zrotation Yrotation Xrotation
		JOINT LeftUpLeg
		{
			OFFSET 1.800000 -1.400000 0.085000
			CHANNELS 3 Zrotation Yrotation Xrotation
			JOINT LeftLeg
			{
				OFFSET 2.215000 -6.000000 0.000000
				CHANNELS 3 Zrotation Yrotation Xrotation
				JOINT LeftFoot
				{
					OFFSET 2.500000 -6.900000 0.000000
					CHANNELS 3 Zrotation Yrotation Xrotation
					JOINT LeftToeBase
					{
						OFFSET 0.200000 -0.500000 1.950000
						CHANNELS 3 Zrotation Yrotation Xrotation
						End Site
						{
							OFFSET 0.000000 0.000000 0.000000
						}
					}
				}
			}
		}
	}
	JOINT RHipJoint
	{
		OFFSET 0.000000 0.000000 0.000000
		CHANNELS 3 Zrotation Yrotation Xrotation
		JOINT RightUpLeg
		{
			OFFSET -1.800000 -1.400000 0.085000
			CHANNELS 3 Zrotation Yrotation Xrotation
			JOINT RightLeg
			{
				OFFSET -2.215000 -6.000000 0.000000
				CHANNELS 3 Zrotation Yrotation Xrotation
				JOINT RightFoot
				{
					OFFSET -2.500000 -6.900000 0.000000
					CHANNELS 3 Zrotation Yrotation Xrotation
					JOINT RightToeBase
					{
						OFFSET -0.200000 -0.500000 1.950000
						CHANNELS 3 Zrotation Yrotation Xrotation
						End Site
						{
							OFFSET 0.000000 0.000000 0.000000
						}
					}
				}
			}
		}
	}
	JOINT LowerBack
	{
		OFFSET 0.000000 0.000000 0.000000
		CHANNELS 3 Zrotation Yrotation Xrotation
		JOINT Spine
		{
			OFFSET -0.087000 1.940000 -0.288900
			CHANNELS 3 Zrotation Yrotation Xrotation
			JOINT Spine1
			{
				OFFSET 0.000000 1.950000 0.060000
				CHANNELS 3 Zrotation Yrotation Xrotation
				JOINT Neck
				{
					OFFSET 0.000000 0.000000 0.000000
					CHANNELS 3 Zrotation Yrotation Xrotation
					JOINT Neck1
					{
						OFFSET 0.000000 1.600000 0.340000
						CHANNELS 3 Zrotation Yrotation Xrotation
						JOINT Head
						{
							OFFSET 0.000000 1.667000 -0.240000
							CHANNELS 3 Zrotation Yrotation Xrotation
							End Site
							{
								OFFSET 0.000000 0.000000 0.000000
							}
						}
					}
				}
				JOINT LeftShoulder
				{
					OFFSET 0.000000 0.000000 0.000000
					CHANNELS 3 Zrotation Yrotation Xrotation
					JOINT LeftArm
					{
						OFFSET 2.700000 1.550000 -0.730000
						CHANNELS 3 Zrotation Yrotation Xrotation
						JOINT LeftForeArm
						{
							OFFSET 5.450000 0.000000 0.000000
							CHANNELS 3 Zrotation Yrotation Xrotation
							JOINT LeftHand
							{
								OFFSET 3.450000 0.000000 0.000000
								CHANNELS 3 Zrotation Yrotation Xrotation
								JOINT LeftHandIndex1
								{
									OFFSET 0.750000 0.000000 0.000000
									CHANNELS 3 Zrotation Yrotation Xrotation
									End Site
									{
										OFFSET 0.000000 0.000000 0.000000
									}
								}
							}
						}
					}
				}
				JOINT RightShoulder
				{
					OFFSET 0.000000 0.000000 0.000000
					CHANNELS 3 Zrotation Yrotation Xrotation
					JOINT RightArm
					{
						OFFSET -2.700000 1.550000 -0.730000
						CHANNELS 3 Zrotation Yrotation Xrotation
						JOINT RightForeArm
						{
							OFFSET -5.450000 0.000000 0.000000
							CHANNELS 3 Zrotation Yrotation Xrotation
							JOINT RightHand
							{
								OFFSET -3.450000 0.000000 0.000000
								CHANNELS 3 Zrotation Yrotation Xrotation
								JOINT RightHandIndex1
								{
									OFFSET -0.750000 0.000000 0.000000
									CHANNELS 3 Zrotation Yrotation Xrotation
									End Site
									{
										OFFSET 0.000000 0.000000 0.000000
									}
								}
							}
						}
					}
				}
			}
		}
	}
}
MOTION
Frames: 14
Frame Time: 0.016667
0.434200 17.590570 -0.933860 0.414993 7.696285 3.799502 -15.284636 13.499411 2.827616 2.528652 -1.963024 -15.322289 -2.984972 4.034188 8.104349 -1.331193 4.193182 3.483775 -0.577540 -0.966160 -0.473500 18.180087 -10.848409 2.144050 -10.727237 1.184694 -15.669596 5.099215 -5.347213 15.477979 0.503068 -4.003763 3.135226 -0.024570 1.336550 0.069640 -3.412042 -2.450144 -6.383118 6.047929 -0.500892 2.211253 0.403847 -0.555622 7.630482 -0.651721 -4.209488 -4.946164 -8.455161 12.354566 26.783646 -5.596880 11.375000 8.002130 -16.647406 -1.944529 0.442336 -24.493767 -11.201023 -1.728693 41.111379 -30.618933 -11.520550 -4.799562 2.588354 0.143860 0.963720 -0.963610 0.012080 18.134257 4.294671 1.487893 24.852153 8.344590 -7.053550 -31.716332 38.033627 -9.384274 1.496135 -1.383076 -1.008960 0.605330 0.780650 -0.244000 
0.434710 17.590590 -0.934170 0.406929 7.722121 3.796588 -15.284782 13.499673 2.828211 2.541107 -1.963986 -15.330204 -3.005601 4.039008 8.110948 -1.329786 4.192956 3.482538 -0.575640 -0.963850 -0.470730 18.179868 -10.848495 2.143558 -10.716944 1.186106 -15.679518 5.090591 -5.347097 15.505307 0.501947 -4.003210 3.133152 -0.023810 1.333380 0.070540 -3.411879 -2.450955 -6.383524 6.050999 -0.508665 2.218873 0.411746 -0.564775 7.637656 -0.654894 -4.205904 -4.940575 -8.452322 12.328756 26.799410 -5.622050 11.370880 7.980010 -16.638593 -1.930330 0.439459 -24.460633 -11.191475 -1.738589 41.227301 -30.738528 -11.588172 -4.797168 2.589182 0.143700 0.962210 -0.961470 0.011310 18.130982 4.278026 1.481642 24.853028 8.341620 -7.052099 -31.684256 38.071504 -9.379930 1.497617 -1.384202 -1.007060 0.603070 0.778810 -0.244160 
0.435550 17.590430 -0.934810 0.387757 7.786738 3.807425 -15.285116 13.499517 2.829405 2.571112 -1.969145 -15.366937 -3.046881 4.048592 8.119828 -1.331594 4.196522 3.480953 -0.575230 -0.963880 -0.468590 18.179688 -10.847464 2.142525 -10.693803 1.192019 -15.715887 5.084527 -5.353091 15.568570 0.502120 -4.004240 3.131698 -0.023210 1.333280 0.070700 -3.411961 -2.453664 -6.383387 6.061046 -0.533869 2.222242 0.418491 -0.591143 7.648014 -0.662377 -4.195951 -4.928595 -8.435974 12.294269 26.792006 -5.664950 11.363240 7.955320 -16.600061 -1.897661 0.434327 -24.417814 -11.173297 -1.749939 41.503995 -30.956155 -11.735186 -4.796505 2.586373 0.144250 0.962680 -0.961360 0.010560 18.107248 4.233842 1.463876 24.892966 8.351885 -7.046992 -31.630515 38.143382 -9.375513 1.496524 -1.383748 -1.008000 0.603580 0.778620 -0.244960 
0.436750 17.590130 -0.935520 0.370891 7.871726 3.820727 -15.285689 13.500045 2.831045 2.595471 -1.975041 -15.408796 -3.091986 4.059948 8.138057 -1.331859 4.201141 3.478756 -0.576490 -0.965700 -0.469180 18.179169 -10.846601 2.140829 -10.677793 1.199386 -15.770052 5.082276 -5.365665 15.668919 0.503082 -4.008172 3.129221 -0.023250 1.333630 0.072030 -3.411571 -2.457809 -6.383099 6.064933 -0.568292 2.224014 0.433078 -0.628251 7.662355 -0.677820 -4.184857 -4.918201 -8.421100 12.236304 26.796577 -5.711260 11.334250 7.976430 -16.532196 -1.856178 0.435455 -24.347950 -11.135083 -1.765691 41.857614 -31.275992 -11.935785 -4.796380 2.584730 0.143050 0.964160 -0.961930 0.010100 18.070521 4.181437 1.441991 24.955193 8.380417 -7.035215 -31.578979 38.205141 -9.368036 1.495492 -1.384325 -1.008150 0.602570 0.779430 -0.245160 
0.438490 17.590120 -0.936240 0.347861 7.969684 3.825917 -15.287351 13.501439 2.833688 2.631818 -1.976778 -15.428168 -3.149011 4.071203 8.117609 -1.333230 4.208525 3.475489 -0.579570 -0.971030 -0.468770 18.177497 -10.844878 2.138626 -10.659103 1.208107 -15.827919 5.078521 -5.381961 15.787918 0.504407 -4.012008 3.126319 -0.025220 1.333690 0.073350 -3.408068 -2.465222 -6.384276 6.050620 -0.601218 2.233845 0.475823 -0.667555 7.685521 -0.689475 -4.153898 -4.909300 -8.375931 12.150566 26.839957 -5.787330 11.310470 7.994310 -16.467003 -1.826783 0.440799 -24.240152 -11.078008 -1.790354 42.277730 -31.682121 -12.187116 -4.796482 2.580507 0.143570 0.965470 -0.962710 0.007660 18.032524 4.128187 1.421694 25.009836 8.404571 -7.029018 -31.507934 38.267174 -9.350935 1.494309 -1.382833 -1.009530 0.601730 0.782070 -0.246920 
0.440700 17.590330 -0.937060 0.312133 8.087817 3.817742 -15.288948 13.504066 2.836080 2.680296 -1.973709 -15.428472 -3.192466 4.078728 8.074881 -1.337990 4.216655 3.471850 -0.584350 -0.978740 -0.468870 18.175624 -10.843682 2.136548 -10.635581 1.216532 -15.883660 5.081548 -5.405372 15.929802 0.506075 -4.016946 3.123660 -0.027710 1.333760 0.072550 -3.404799 -2.473663 -6.386994 6.048163 -0.635590 2.260657 0.516890 -0.708940 7.706231 -0.697149 -4.109725 -4.898615 -8.312629 12.048296 26.921378 -5.867270 11.280520 7.992000 -16.400145 -1.799540 0.436499 -24.065614 -11.029045 -1.809521 42.660501 -32.160370 -12.450501 -4.796062 2.571979 0.146860 0.966190 -0.964220 0.003720 17.984660 4.061779 1.406600 25.083253 8.395206 -7.039365 -31.440810 38.400753 -9.345844 1.490661 -1.377989 -1.013690 0.603130 0.786790 -0.250430 
0.443300 17.590530 -0.937950 0.280759 8.218923 3.816618 -15.291766 13.507440 2.839202 2.711734 -1.968992 -15.413238 -3.217784 4.077376 7.990831 -1.342634 4.222587 3.470379 -0.588800 -0.985400 -0.469420 18.172945 -10.841266 2.133045 -10.617033 1.225865 -15.958782 5.073445 -5.427100 16.096715 0.508194 -4.021951 3.121349 -0.028810 1.334700 0.070740 -3.398731 -2.486394 -6.388616 6.020225 -0.669737 2.281340 0.593684 -0.754480 7.722771 -0.722442 -4.064644 -4.874357 -8.250562 11.940481 26.990830 -5.938880 11.239740 7.998990 -16.314360 -1.745528 0.422484 -23.876615 -11.009073 -1.808815 42.990246 -32.673415 -12.707263 -4.795737 2.563044 0.148870 0.967460 -0.966420 0.000930 17.954089 3.971710 1.378551 25.137826 8.377710 -7.050130 -31.423970 38.578370 -9.364166 1.486171 -1.374041 -1.018470 0.605940 0.790760 -0.253540 
0.446390 17.590660 -0.938600 0.246123 8.356404 3.817119 -15.295112 13.510436 2.842489 2.742695 -1.962299 -15.383417 -3.243461 4.072582 7.880829 -1.347009 4.227364 3.468558 -0.590720 -0.988800 -0.467940 18.170020 -10.837978 2.129037 -10.605128 1.235880 -16.043840 5.077084 -5.454815 16.285230 0.509032 -4.029024 3.116742 -0.028840 1.334970 0.070130 -3.391565 -2.500263 -6.389635 5.979661 -0.701633 2.297252 0.690907 -0.803454 7.744652 -0.758241 -4.009356 -4.839908 -8.171576 11.827810 27.060282 -5.993390 11.185190 7.968100 -16.196828 -1.670907 0.401029 -23.650690 -11.005850 -1.793362 43.220305 -33.240751 -12.949995 -4.794284 2.555540 0.150720 0.968110 -0.967260 -0.001780 17.913772 3.855645 1.336732 25.198670 8.372823 -7.052487 -31.419820 38.750154 -9.385225 1.482575 -1.371020 -1.021530 0.608120 0.793560 -0.255780 
0.449540 17.590440 -0.939330 0.221794 8.515948 3.824879 -15.300116 13.514293 2.846875 2.762631 -1.955944 -15.350819 -3.270467 4.066194 7.751173 -1.350339 4.231102 3.467693 -0.593130 -0.991790 -0.467560 18.165596 -10.832699 2.124294 -10.610906 1.246533 -16.150322 5.103596 -5.493289 16.512630 0.510848 -4.039860 3.111450 -0.028340 1.336090 0.068330 -3.380076 -2.519975 -6.390765 5.894880 -0.740554 2.309378 0.812720 -0.863835 7.762627 -0.804256 -3.942697 -4.802685 -8.073158 11.705782 27.117799 -6.022680 11.113780 7.960230 -16.071422 -1.601427 0.378632 -23.337222 -10.991555 -1.771068 43.331537 -33.829687 -13.153425 -4.793174 2.548315 0.150600 0.969500 -0.969420 -0.004410 17.890614 3.739256 1.293173 25.229575 8.360106 -7.048810 -31.397878 38.927059 -9.401221 1.479222 -1.368558 -1.024590 0.610780 0.796150 -0.257370 
0.452790 17.590120 -0.939920 0.206935 8.693923 3.846373 -15.305981 13.518479 2.851548 2.760866 -1.948498 -15.310383 -3.271234 4.050812 7.590709 -1.353611 4.229974 3.468770 -0.596540 -0.993190 -0.470430 18.160793 -10.826545 2.118174 -10.628114 1.256994 -16.281579 5.126525 -5.533839 16.775784 0.514703 -4.053357 3.105981 -0.026050 1.338000 0.063670 -3.367014 -2.542689 -6.390103 5.785449 -0.785582 2.304283 0.949290 -0.934449 7.784546 -0.866661 -3.875566 -4.761793 -7.973406 11.588870 27.148518 -6.016470 11.028320 7.984540 -15.907540 -1.517150 0.353465 -22.972247 -10.978626 -1.732218 43.248972 -34.468901 -13.299669 -4.791992 2.542403 0.147270 0.971760 -0.974200 -0.007120 17.863075 3.608891 1.244618 25.265421 8.340935 -7.037187 -31.380731 39.107496 -9.422151 1.475583 -1.367594 -1.028150 0.614060 0.799030 -0.258110 
0.456380 17.589460 -0.940280 0.203254 8.860562 3.867840 -15.313644 13.525597 2.856247 2.739717 -1.943812 -15.278336 -3.248723 4.033196 7.460419 -1.358088 4.228854 3.469553 -0.598940 -0.994170 -0.471450 18.153909 -10.818447 2.112488 -10.676740 1.266468 -16.414652 5.182071 -5.586980 17.044274 0.516558 -4.069492 3.098249 -0.023920 1.339410 0.060730 -3.348216 -2.573729 -6.389784 5.627001 -0.822800 2.305401 1.143997 -1.003611 7.811190 -0.943125 -3.809768 -4.723735 -7.882479 11.461239 27.189659 -6.039960 10.940570 7.956830 -15.707795 -1.427671 0.336299 -22.594918 -10.944922 -1.683781 43.000565 -35.176530 -13.411458 -4.790064 2.535905 0.145980 0.973520 -0.976880 -0.009890 17.831759 3.484919 1.192234 25.255097 8.333942 -7.022089 -31.352638 39.257209 -9.428333 1.472064 -1.365592 -1.031310 0.617850 0.801980 -0.259140 
0.460180 17.588900 -0.940440 0.199731 9.001647 3.887958 -15.321713 13.534405 2.861080 2.718324 -1.940726 -15.246622 -3.234511 4.019867 7.361231 -1.364847 4.230290 3.468346 -0.596180 -0.991500 -0.467960 18.146619 -10.810056 2.106280 -10.714314 1.278660 -16.547479 5.203106 -5.628929 17.314209 0.515715 -4.081562 3.089990 -0.019560 1.338060 0.059220 -3.327764 -2.608429 -6.388696 5.452704 -0.851439 2.307609 1.371150 -1.069589 7.854147 -1.038860 -3.757753 -4.690371 -7.820780 11.346503 27.232892 -6.043640 10.831360 7.841800 -15.459804 -1.334869 0.324048 -22.172289 -10.882371 -1.623101 42.465699 -35.941457 -13.441302 -4.784994 2.531901 0.148260 0.972610 -0.976830 -0.011990 17.789996 3.373978 1.140074 25.224400 8.336099 -7.005806 -31.305629 39.385764 -9.422750 1.467663 -1.364058 -1.033690 0.621790 0.803450 -0.261670 
0.464320 17.588370 -0.940260 0.201432 9.124893 3.913721 -15.330211 13.543523 2.866086 2.680633 -1.937669 -15.210202 -3.206770 4.002669 7.257916 -1.367153 4.228704 3.470199 -0.592570 -0.987700 -0.464080 18.138799 -10.801476 2.100713 -10.762978 1.290790 -16.690246 5.233973 -5.673901 17.585605 0.513717 -4.094989 3.082138 -0.016550 1.337590 0.059190 -3.305659 -2.643557 -6.388243 5.257098 -0.876161 2.305690 1.630071 -1.139131 7.896759 -1.139071 -3.700031 -4.671402 -7.748018 11.213169 27.270832 -6.060690 10.724200 7.763330 -15.188645 -1.259497 0.332500 -21.704954 -10.748060 -1.570055 41.721512 -36.786563 -13.409357 -4.778162 2.531088 0.148910 0.972220 -0.975770 -0.011830 17.738281 3.284019 1.094706 25.172210 8.342338 -6.983426 -31.239978 39.478174 -9.405318 1.465495 -1.364296 -1.033700 0.624650 0.802260 -0.262160 
0.468960 17.587800 -0.939870 0.217473 9.218813 3.947641 -15.339617 13.552606 2.870899 2.612943 -1.935173 -15.167872 -3.153223 3.978972 7.149001 -1.367177 4.227845 3.472823 -0.592980 -0.988440 -0.464140 18.130361 -10.792299 2.095108 -10.828324 1.302202 -16.836351 5.265551 -5.718625 17.841058 0.513464 -4.110771 3.073635 -0.015740 1.340650 0.062320 -3.280788 -2.679513 -6.386442 5.027107 -0.883172 2.284201 1.930075 -1.199481 7.947427 -1.247071 -3.628740 -4.653801 -7.651649 11.054372 27.304037 -6.099610 10.611970 7.764630 -14.909591 -1.197577 0.345708 -21.179835 -10.590287 -1.508114 40.691212 -37.709629 -13.286892 -4.774840 2.534473 0.146380 0.975290 -0.975890 -0.010870 17.697676 3.203988 1.053657 25.079069 8.340175 -6.956929 -31.186089 39.542230 -9.383932 1.464270 -1.366005 -1.033220 0.625920 0.802890 -0.260720 
